<svg width="921" height="412" viewBox="0 0 921 412" fill="none" xmlns="http://www.w3.org/2000/svg">
<g clip-path="url(#clip0)">
<path d="M436.527 410H632.117C639.839 410 639.851 398 632.117 398H436.527C428.805 398 428.792 410 436.527 410Z" fill="#E6E6E6"/>
<path d="M383.72 149.231H188.786C186.727 149.234 184.753 150.053 183.297 151.509C181.841 152.965 181.022 154.939 181.019 156.998V195.724C190.743 195.952 197.054 203.976 198.584 213.717V248.823H199.322C199.44 248.824 199.552 248.87 199.635 248.953C199.718 249.036 199.765 249.149 199.765 249.266V267.947C199.765 268.064 199.718 268.177 199.635 268.26C199.552 268.343 199.44 268.39 199.322 268.39H198.584V381.299C198.584 383.78 198.559 388.306 198.559 388.306H383.72C385.779 388.304 387.753 387.485 389.209 386.029C390.665 384.572 391.484 382.598 391.487 380.539V156.998C391.484 154.939 390.665 152.965 389.209 151.509C387.753 150.053 385.779 149.234 383.72 149.231V149.231Z" fill="#191919"/>
<path d="M745.9 21.8102V233.711H404.969V140.415C404.965 136.179 403.28 132.118 400.285 129.122C397.289 126.127 393.228 124.442 388.991 124.438H325.052V21.8102H745.9Z" fill="#191919"/>
<path d="M766.949 263.583H405.35V262.107H765.473V12.5516C765.469 9.61536 764.301 6.80033 762.225 4.7241C760.149 2.64786 757.334 1.47997 754.398 1.47665H312.139C309.203 1.47998 306.388 2.64787 304.311 4.7241C302.235 6.80033 301.067 9.61536 301.064 12.5516V123.481H299.587V12.5516C299.591 9.22386 300.915 6.03348 303.268 3.68041C305.621 1.32734 308.811 0.00373756 312.139 -7.62939e-06H754.398C757.726 0.00373227 760.916 1.32733 763.269 3.6804C765.622 6.03347 766.946 9.22386 766.949 12.5516V263.583Z" fill="#3F3D56"/>
<path d="M732.687 308.621H405.35V307.145H732.687C741.379 307.135 749.713 303.678 755.859 297.531C762.005 291.385 765.463 283.051 765.473 274.359V263.583H405.35V262.107H766.949V274.359C766.939 283.443 763.326 292.152 756.903 298.575C750.479 304.998 741.771 308.611 732.687 308.621V308.621Z" fill="#3F3D56"/>
<path d="M635.539 380.978C617.291 363.456 605.287 340.593 601.428 308.621H466.939C465.571 338.533 453.643 360.966 432.126 380.899L429.853 380.978C452.052 360.86 464.28 338.262 465.494 307.854L465.522 307.145H602.741L602.818 307.798C606.607 340.311 618.863 363.321 637.56 380.859L635.539 380.978Z" fill="#3F3D56"/>
<path d="M388.634 411.524H181.461V410.048H388.634C392.87 410.043 396.931 408.358 399.926 405.363C402.922 402.368 404.606 398.307 404.611 394.071V140.754C404.606 136.519 402.922 132.458 399.926 129.462C396.931 126.467 392.87 124.782 388.634 124.778H181.461C177.225 124.782 173.164 126.467 170.169 129.462C167.174 132.458 165.489 136.519 165.484 140.754V195.422H164.008V140.754C164.013 136.127 165.854 131.691 169.126 128.419C172.398 125.147 176.834 123.306 181.461 123.301H388.634C393.262 123.306 397.698 125.147 400.97 128.419C404.242 131.691 406.083 136.127 406.088 140.754V394.071C406.083 398.698 404.242 403.134 400.97 406.406C397.698 409.678 393.262 411.519 388.634 411.524V411.524Z" fill="#3F3D56"/>
<path d="M285.048 141.983C284.058 141.983 283.09 141.689 282.266 141.139C281.443 140.589 280.801 139.807 280.422 138.892C280.043 137.977 279.944 136.971 280.137 135.999C280.33 135.028 280.807 134.136 281.507 133.436C282.208 132.736 283.1 132.259 284.071 132.066C285.042 131.872 286.049 131.972 286.964 132.35C287.878 132.729 288.66 133.371 289.211 134.194C289.761 135.018 290.054 135.986 290.054 136.976C290.053 138.303 289.525 139.576 288.586 140.515C287.648 141.453 286.375 141.981 285.048 141.983V141.983ZM285.048 133.127C284.286 133.127 283.542 133.352 282.909 133.775C282.276 134.198 281.783 134.8 281.491 135.503C281.2 136.206 281.124 136.98 281.272 137.727C281.421 138.474 281.788 139.16 282.326 139.698C282.864 140.236 283.55 140.603 284.297 140.752C285.044 140.9 285.818 140.824 286.521 140.532C287.224 140.241 287.825 139.748 288.248 139.115C288.671 138.482 288.897 137.737 288.897 136.976C288.896 135.955 288.49 134.977 287.768 134.255C287.047 133.534 286.068 133.128 285.048 133.127V133.127Z" fill="#3F3D56"/>
<path d="M285.048 405.864C283.784 405.864 282.549 405.49 281.499 404.788C280.448 404.086 279.629 403.088 279.146 401.921C278.662 400.753 278.536 399.469 278.782 398.23C279.029 396.991 279.637 395.852 280.53 394.959C281.424 394.065 282.562 393.457 283.801 393.21C285.041 392.964 286.325 393.09 287.492 393.574C288.66 394.057 289.657 394.876 290.359 395.927C291.061 396.977 291.436 398.212 291.436 399.476C291.434 401.17 290.761 402.793 289.563 403.991C288.365 405.189 286.741 405.863 285.048 405.864V405.864ZM285.048 394.564C284.076 394.564 283.127 394.852 282.319 395.392C281.511 395.932 280.882 396.699 280.51 397.596C280.138 398.494 280.041 399.482 280.23 400.434C280.42 401.387 280.888 402.262 281.575 402.949C282.262 403.636 283.137 404.104 284.09 404.293C285.042 404.483 286.03 404.386 286.928 404.014C287.825 403.642 288.592 403.013 289.132 402.205C289.672 401.397 289.96 400.447 289.96 399.476C289.958 398.174 289.44 396.925 288.519 396.004C287.598 395.084 286.35 394.566 285.048 394.564V394.564Z" fill="#3F3D56"/>
<path d="M179.381 411.952H110.801C105.638 411.946 100.688 409.893 97.0374 406.242C93.3867 402.591 91.3332 397.642 91.3274 392.479V214.895C91.3332 209.732 93.3868 204.782 97.0374 201.132C100.688 197.481 105.638 195.428 110.801 195.422H179.381C184.544 195.428 189.493 197.481 193.144 201.132C196.795 204.782 198.848 209.732 198.854 214.895V246.674C199.204 246.82 199.502 247.067 199.713 247.382C199.923 247.697 200.035 248.068 200.036 248.447L200.036 269.125C200.035 269.504 199.923 269.874 199.713 270.19C199.502 270.505 199.204 270.751 198.854 270.897V392.479C198.848 397.642 196.794 402.592 193.144 406.242C189.493 409.893 184.543 411.946 179.381 411.952V411.952ZM110.801 196.898C106.029 196.904 101.455 198.802 98.0811 202.175C94.7073 205.549 92.8095 210.123 92.804 214.895V392.479C92.8094 397.25 94.7072 401.824 98.081 405.198C101.455 408.572 106.029 410.47 110.801 410.475H179.381C184.152 410.47 188.726 408.572 192.1 405.198C195.474 401.825 197.372 397.25 197.377 392.479V269.568H198.116C198.233 269.568 198.346 269.521 198.429 269.438C198.512 269.355 198.559 269.242 198.559 269.125L198.559 248.447C198.559 248.329 198.512 248.216 198.429 248.133C198.346 248.05 198.233 248.003 198.116 248.003H197.377V214.895C197.372 210.123 195.474 205.549 192.1 202.175C188.726 198.802 184.152 196.904 179.381 196.898H110.801Z" fill="#3F3D56"/>
<path d="M180.137 201.034H171.185C171.596 202.043 171.753 203.138 171.642 204.223C171.531 205.307 171.155 206.348 170.547 207.252C169.939 208.157 169.118 208.898 168.156 209.411C167.194 209.923 166.12 210.192 165.03 210.192H125.742C124.652 210.192 123.578 209.923 122.616 209.411C121.654 208.898 120.833 208.157 120.225 207.252C119.617 206.348 119.241 205.307 119.13 204.223C119.019 203.138 119.176 202.043 119.587 201.034H111.226C107.516 201.034 103.957 202.508 101.333 205.132C98.7093 207.756 97.2352 211.314 97.2352 215.025V392.349C97.2352 396.059 98.7093 399.618 101.333 402.242C103.957 404.866 107.516 406.34 111.226 406.34H180.137C183.847 406.34 187.406 404.866 190.03 402.242C192.654 399.618 194.128 396.059 194.128 392.349V215.025C194.128 211.314 192.654 207.756 190.03 205.132C187.406 202.508 183.847 201.034 180.137 201.034V201.034Z" fill="#191919"/>
<path d="M919.23 411.663H0.879089C0.763393 411.664 0.648765 411.641 0.541763 411.597C0.434761 411.553 0.337487 411.488 0.255539 411.407C0.173591 411.325 0.108574 411.228 0.064209 411.121C0.0198435 411.014 -0.00299072 410.9 -0.00299072 410.784C-0.00299072 410.668 0.0198435 410.554 0.064209 410.447C0.108574 410.34 0.173591 410.243 0.255539 410.161C0.337487 410.08 0.434761 410.015 0.541763 409.971C0.648765 409.927 0.763393 409.905 0.879089 409.905H919.23C919.345 409.905 919.46 409.927 919.567 409.971C919.674 410.015 919.771 410.08 919.853 410.161C919.935 410.243 920 410.34 920.044 410.447C920.089 410.554 920.112 410.668 920.112 410.784C920.112 410.9 920.089 411.014 920.044 411.121C920 411.228 919.935 411.325 919.853 411.407C919.771 411.488 919.674 411.553 919.567 411.597C919.46 411.641 919.345 411.664 919.23 411.663V411.663Z" fill="#3F3D56"/>
<path d="M635.995 411.249H431.478C429.441 411.251 427.423 410.851 425.541 410.073C423.658 409.294 421.947 408.152 420.506 406.712C419.065 405.272 417.922 403.563 417.142 401.681C416.362 399.799 415.961 397.781 415.961 395.744C415.961 393.707 416.362 391.69 417.142 389.808C417.922 387.926 419.065 386.216 420.506 384.776C421.947 383.336 423.658 382.194 425.541 381.416C427.423 380.638 429.441 380.238 431.478 380.239H635.995C640.105 380.243 644.046 381.878 646.951 384.785C649.856 387.692 651.488 391.634 651.488 395.744C651.488 399.854 649.856 403.796 646.951 406.703C644.046 409.611 640.105 411.246 635.995 411.249ZM431.478 381.716C427.758 381.716 424.189 383.194 421.559 385.825C418.928 388.456 417.45 392.024 417.45 395.744C417.45 399.465 418.928 403.033 421.559 405.664C424.189 408.295 427.758 409.773 431.478 409.773H635.995C639.716 409.773 643.284 408.295 645.915 405.664C648.546 403.033 650.024 399.465 650.024 395.744C650.024 392.024 648.546 388.456 645.915 385.825C643.284 383.194 639.716 381.716 635.995 381.716H431.478Z" fill="#3F3D56"/>
<path d="M835.95 411.62C835.95 411.62 822.69 366.62 838.44 333.48C845.144 319.628 847.173 303.974 844.22 288.87C842.76 281.715 840.648 274.709 837.91 267.94" stroke="#535461" stroke-width="2" stroke-miterlimit="10"/>
<path d="M847.67 247C847.67 252.52 837.67 268.51 837.67 268.51C837.67 268.51 827.67 252.51 827.67 247C827.67 244.348 828.723 241.804 830.599 239.929C832.474 238.054 835.018 237 837.67 237C840.322 237 842.866 238.054 844.741 239.929C846.616 241.804 847.67 244.348 847.67 247Z" fill="black"/>
<path d="M864.22 277.56C861.22 282.19 844.14 290.19 844.14 290.19C844.14 290.19 844.45 271.33 847.45 266.7C848.132 265.533 849.044 264.517 850.13 263.713C851.216 262.908 852.454 262.332 853.769 262.02C855.083 261.707 856.448 261.664 857.78 261.893C859.112 262.123 860.383 262.62 861.518 263.355C862.652 264.089 863.626 265.046 864.38 266.168C865.134 267.289 865.653 268.552 865.906 269.88C866.159 271.207 866.139 272.572 865.85 273.892C865.56 275.213 865.005 276.46 864.22 277.56V277.56Z" fill="black"/>
<path d="M863.46 329.77C858.53 332.25 839.75 330.54 839.75 330.54C839.75 330.54 849.54 314.42 854.46 311.94C856.809 310.879 859.478 310.765 861.908 311.624C864.339 312.483 866.344 314.247 867.506 316.549C868.667 318.851 868.894 321.512 868.14 323.977C867.386 326.442 865.71 328.521 863.46 329.78V329.77Z" fill="black"/>
<path d="M854.02 369.16C849.58 372.44 830.78 373.92 830.78 373.92C830.78 373.92 837.7 356.38 842.14 353.1C844.276 351.675 846.879 351.126 849.409 351.568C851.939 352.009 854.202 353.407 855.729 355.472C857.257 357.536 857.931 360.109 857.613 362.658C857.294 365.206 856.008 367.534 854.02 369.16V369.16Z" fill="black"/>
<path d="M823.13 291.26C827.13 295.1 845.52 299.09 845.52 299.09C845.52 299.09 841.01 280.78 837.05 276.94C836.125 275.953 835.009 275.164 833.77 274.62C832.532 274.076 831.195 273.79 829.843 273.778C828.49 273.765 827.149 274.028 825.9 274.549C824.652 275.07 823.522 275.839 822.58 276.81C821.637 277.78 820.901 278.931 820.416 280.194C819.932 281.458 819.708 282.806 819.76 284.158C819.811 285.509 820.136 286.837 820.716 288.059C821.295 289.282 822.116 290.374 823.13 291.27V291.26Z" fill="black"/>
<path d="M812.67 337.46C817.6 339.94 836.38 338.23 836.38 338.23C836.38 338.23 826.59 322.11 821.67 319.63C820.492 318.971 819.194 318.557 817.852 318.414C816.51 318.27 815.154 318.4 813.863 318.794C812.573 319.189 811.376 319.84 810.344 320.71C809.312 321.579 808.467 322.648 807.859 323.853C807.251 325.058 806.894 326.373 806.808 327.719C806.722 329.066 806.909 330.416 807.358 331.688C807.808 332.96 808.51 334.128 809.423 335.122C810.336 336.116 811.44 336.914 812.67 337.47V337.46Z" fill="black"/>
<path d="M808.67 383.76C813.11 387.04 831.91 388.52 831.91 388.52C831.91 388.52 824.99 370.98 820.55 367.7C818.414 366.275 815.811 365.726 813.281 366.167C810.751 366.609 808.488 368.007 806.961 370.072C805.433 372.136 804.759 374.709 805.077 377.258C805.395 379.806 806.682 382.134 808.67 383.76Z" fill="black"/>
</g>
<defs>
<clipPath id="clip0">
<rect width="920.109" height="411.952" fill="white"/>
</clipPath>
</defs>
</svg>
